<svg xmlns="http://www.w3.org/2000/svg" xmlns:xlink="http://www.w3.org/1999/xlink" viewBox="0,0,256,256" width="120px" height="120px" fill-rule="nonzero"><g fill="#7dd3fc" fill-rule="nonzero" stroke="none" stroke-width="1" stroke-linecap="butt" stroke-linejoin="miter" stroke-miterlimit="10" stroke-dasharray="" stroke-dashoffset="0" font-family="none" font-weight="none" font-size="none" text-anchor="none" style="mix-blend-mode: normal"><g transform="scale(5.33333,5.33333)"><path d="M32,28.5v10.5h-20v-10.5c0,-0.276 -0.224,-0.5 -0.5,-0.5h-2c-0.276,0 -0.5,0.224 -0.5,0.5v12.5c0,0.552 0.448,1 1,1h24c0.552,0 1,-0.448 1,-1v-12.5c0,-0.276 -0.224,-0.5 -0.5,-0.5h-2c-0.276,0 -0.5,0.224 -0.5,0.5z"></path><rect x="15" y="34" width="14" height="3"></rect><path d="M15.081,28.26l13.919,1.498l-0.321,2.983l-13.92,-1.498z"></path><path d="M36.871,6l2.133,13.835l-2.966,0.457l-2.133,-13.835z"></path><path d="M28.47,8.237l6.831,12.218l-2.619,1.465l-6.831,-12.219z"></path><path d="M20.501,14.551l11.499,7.982l-1.711,2.465l-11.499,-7.982z"></path><path d="M16.899,21.218l13.173,4.739l-1.016,2.824l-13.173,-4.739z"></path></g></g></svg>